<svg width="102" height="25" viewBox="0 0 102 25" fill="none" xmlns="http://www.w3.org/2000/svg">
<path d="M1.366 24.292C1.146 24.292 0.959 24.215 0.805 24.061C0.651 23.907 0.574 23.72 0.574 23.5V2.01699C0.574 1.77499 0.651 1.57699 0.805 1.42299C0.959 1.26899 1.146 1.19199 1.366 1.19199H15.886C16.128 1.19199 16.326 1.26899 16.48 1.42299C16.634 1.57699 16.711 1.77499 16.711 2.01699V4.19499C16.711 4.41499 16.634 4.60199 16.48 4.75599C16.326 4.90999 16.128 4.98699 15.886 4.98699H5.029V10.828H15.16C15.402 10.828 15.6 10.905 15.754 11.059C15.908 11.191 15.985 11.378 15.985 11.62V13.666C15.985 13.908 15.908 14.106 15.754 14.26C15.6 14.392 15.402 14.458 15.16 14.458H5.029V20.497H16.15C16.392 20.497 16.59 20.574 16.744 20.728C16.898 20.882 16.975 21.08 16.975 21.322V23.5C16.975 23.72 16.898 23.907 16.744 24.061C16.59 24.215 16.392 24.292 16.15 24.292H1.366Z" fill="#FF6838"/>
<path d="M23.5443 24.292C23.3243 24.292 23.1373 24.215 22.9833 24.061C22.8293 23.907 22.7523 23.72 22.7523 23.5V2.01699C22.7523 1.77499 22.8293 1.57699 22.9833 1.42299C23.1373 1.26899 23.3243 1.19199 23.5443 1.19199H37.8663C38.1083 1.19199 38.3063 1.26899 38.4603 1.42299C38.6143 1.57699 38.6913 1.77499 38.6913 2.01699V4.32699C38.6913 4.56899 38.6143 4.76699 38.4603 4.92099C38.3063 5.05299 38.1083 5.11899 37.8663 5.11899H27.2733V11.389H37.2063C37.4483 11.389 37.6463 11.466 37.8003 11.62C37.9543 11.774 38.0313 11.972 38.0313 12.214V14.524C38.0313 14.744 37.9543 14.931 37.8003 15.085C37.6463 15.239 37.4483 15.316 37.2063 15.316H27.2733V23.5C27.2733 23.72 27.1963 23.907 27.0423 24.061C26.8883 24.215 26.6903 24.292 26.4483 24.292H23.5443ZM51.0934 24.622C49.3334 24.622 47.8484 24.314 46.6384 23.698C45.4504 23.082 44.5374 22.213 43.8994 21.091C43.2834 19.969 42.9314 18.66 42.8434 17.164C42.8214 16.768 42.8104 16.284 42.8104 15.712C42.8104 15.14 42.8214 14.656 42.8434 14.26C42.9314 12.742 43.2944 11.433 43.9324 10.333C44.5924 9.21099 45.5164 8.34199 46.7044 7.72599C47.9144 7.10999 49.3774 6.80199 51.0934 6.80199C52.8094 6.80199 54.2614 7.10999 55.4494 7.72599C56.6594 8.34199 57.5834 9.21099 58.2214 10.333C58.8814 11.433 59.2554 12.742 59.3434 14.26C59.3654 14.656 59.3764 15.14 59.3764 15.712C59.3764 16.284 59.3654 16.768 59.3434 17.164C59.2554 18.66 58.8924 19.969 58.2544 21.091C57.6384 22.213 56.7254 23.082 55.5154 23.698C54.3274 24.314 52.8534 24.622 51.0934 24.622ZM51.0934 21.355C52.2594 21.355 53.1614 20.992 53.7994 20.266C54.4374 19.518 54.7894 18.429 54.8554 16.999C54.8774 16.669 54.8884 16.24 54.8884 15.712C54.8884 15.184 54.8774 14.755 54.8554 14.425C54.7894 13.017 54.4374 11.939 53.7994 11.191C53.1614 10.443 52.2594 10.069 51.0934 10.069C49.9274 10.069 49.0254 10.443 48.3874 11.191C47.7494 11.939 47.3974 13.017 47.3314 14.425C47.3094 14.755 47.2984 15.184 47.2984 15.712C47.2984 16.24 47.3094 16.669 47.3314 16.999C47.3974 18.429 47.7494 19.518 48.3874 20.266C49.0254 20.992 49.9274 21.355 51.0934 21.355ZM72.2727 24.622C70.5127 24.622 69.0277 24.314 67.8177 23.698C66.6297 23.082 65.7167 22.213 65.0787 21.091C64.4627 19.969 64.1107 18.66 64.0227 17.164C64.0007 16.768 63.9897 16.284 63.9897 15.712C63.9897 15.14 64.0007 14.656 64.0227 14.26C64.1107 12.742 64.4737 11.433 65.1117 10.333C65.7717 9.21099 66.6957 8.34199 67.8837 7.72599C69.0937 7.10999 70.5567 6.80199 72.2727 6.80199C73.9887 6.80199 75.4407 7.10999 76.6287 7.72599C77.8387 8.34199 78.7627 9.21099 79.4007 10.333C80.0607 11.433 80.4347 12.742 80.5227 14.26C80.5447 14.656 80.5557 15.14 80.5557 15.712C80.5557 16.284 80.5447 16.768 80.5227 17.164C80.4347 18.66 80.0717 19.969 79.4337 21.091C78.8177 22.213 77.9047 23.082 76.6947 23.698C75.5067 24.314 74.0327 24.622 72.2727 24.622ZM72.2727 21.355C73.4387 21.355 74.3407 20.992 74.9787 20.266C75.6167 19.518 75.9687 18.429 76.0347 16.999C76.0567 16.669 76.0677 16.24 76.0677 15.712C76.0677 15.184 76.0567 14.755 76.0347 14.425C75.9687 13.017 75.6167 11.939 74.9787 11.191C74.3407 10.443 73.4387 10.069 72.2727 10.069C71.1067 10.069 70.2047 10.443 69.5667 11.191C68.9287 11.939 68.5767 13.017 68.5107 14.425C68.4887 14.755 68.4777 15.184 68.4777 15.712C68.4777 16.24 68.4887 16.669 68.5107 16.999C68.5767 18.429 68.9287 19.518 69.5667 20.266C70.2047 20.992 71.1067 21.355 72.2727 21.355ZM92.231 24.622C91.087 24.622 90.075 24.435 89.195 24.061C88.337 23.665 87.622 23.115 87.05 22.411C86.478 21.707 86.038 20.882 85.73 19.936C85.422 18.968 85.246 17.912 85.202 16.768C85.18 16.372 85.169 16.02 85.169 15.712C85.169 15.382 85.18 15.019 85.202 14.623C85.246 13.523 85.411 12.5 85.697 11.554C86.005 10.608 86.445 9.78299 87.017 9.07899C87.611 8.35299 88.337 7.79199 89.195 7.39599C90.075 6.99999 91.087 6.80199 92.231 6.80199C93.419 6.80199 94.42 7.01099 95.234 7.42899C96.07 7.82499 96.763 8.34199 97.313 8.97999V1.65399C97.313 1.43399 97.379 1.24699 97.511 1.09299C97.665 0.938991 97.863 0.861991 98.105 0.861991H100.91C101.13 0.861991 101.317 0.938991 101.471 1.09299C101.625 1.24699 101.702 1.43399 101.702 1.65399V23.5C101.702 23.72 101.625 23.907 101.471 24.061C101.317 24.215 101.13 24.292 100.91 24.292H98.303C98.061 24.292 97.863 24.215 97.709 24.061C97.577 23.907 97.511 23.72 97.511 23.5V22.279C96.961 22.961 96.257 23.522 95.399 23.962C94.563 24.402 93.507 24.622 92.231 24.622ZM93.452 21.091C94.376 21.091 95.113 20.882 95.663 20.464C96.213 20.046 96.62 19.518 96.884 18.88C97.148 18.22 97.291 17.549 97.313 16.867C97.335 16.471 97.346 16.053 97.346 15.613C97.346 15.151 97.335 14.722 97.313 14.326C97.291 13.666 97.137 13.039 96.851 12.445C96.565 11.829 96.147 11.323 95.597 10.927C95.047 10.531 94.332 10.333 93.452 10.333C92.528 10.333 91.791 10.542 91.241 10.96C90.713 11.356 90.328 11.884 90.086 12.544C89.844 13.204 89.701 13.93 89.657 14.722C89.635 15.382 89.635 16.042 89.657 16.702C89.701 17.494 89.844 18.22 90.086 18.88C90.328 19.54 90.713 20.079 91.241 20.497C91.791 20.893 92.528 21.091 93.452 21.091Z" fill="#363853"/>
</svg>
