<svg width="35" height="37" viewBox="0 0 35 37" fill="none" xmlns="http://www.w3.org/2000/svg">
<path d="M26.6875 32.1875H23.625V23.3987C23.8956 23.343 24.1507 23.2292 24.3729 23.065C24.595 22.9008 24.7786 22.6902 24.9111 22.4478C25.0436 22.2055 25.1218 21.9371 25.1401 21.6615C25.1585 21.3859 25.1166 21.1097 25.0173 20.8519L23.625 17.231V10.3125C23.625 10.255 23.6137 10.1981 23.5917 10.1451C23.5697 10.092 23.5375 10.0437 23.4969 10.0031C23.4563 9.96248 23.408 9.93025 23.3549 9.90827C23.3019 9.88629 23.245 9.87498 23.1875 9.875H4.8125C4.75504 9.87498 4.69815 9.88629 4.64506 9.90827C4.59197 9.93025 4.54374 9.96248 4.50311 10.0031C4.46248 10.0437 4.43025 10.092 4.40827 10.1451C4.38629 10.1981 4.37498 10.255 4.375 10.3125V17.231L2.98266 20.8519C2.88344 21.1097 2.84155 21.3859 2.85989 21.6615C2.87823 21.9371 2.95636 22.2055 3.08886 22.4478C3.22136 22.6902 3.40504 22.9008 3.62715 23.065C3.84925 23.2292 4.10445 23.343 4.375 23.3987V32.1875H1.3125C1.25504 32.1875 1.19814 32.1988 1.14506 32.2208C1.09197 32.2428 1.04374 32.275 1.00311 32.3156C0.962479 32.3562 0.930253 32.4045 0.908272 32.4576C0.886291 32.5106 0.874985 32.5675 0.875 32.625V35.6875C0.874985 35.745 0.886291 35.8019 0.908272 35.8549C0.930253 35.908 0.962479 35.9563 1.00311 35.9969C1.04374 36.0375 1.09197 36.0697 1.14506 36.0917C1.19814 36.1137 1.25504 36.125 1.3125 36.125H26.6875C26.745 36.125 26.8019 36.1137 26.8549 36.0917C26.908 36.0697 26.9563 36.0375 26.9969 35.9969C27.0375 35.9563 27.0697 35.908 27.0917 35.8549C27.1137 35.8019 27.125 35.745 27.125 35.6875V32.625C27.125 32.5675 27.1137 32.5106 27.0917 32.4576C27.0697 32.4045 27.0375 32.3562 26.9969 32.3156C26.9563 32.275 26.908 32.2428 26.8549 32.2208C26.8019 32.1988 26.745 32.1875 26.6875 32.1875ZM21.875 32.1875V22.8562C22.1144 23.1043 22.4169 23.2826 22.75 23.3719V32.1875H21.875ZM18.375 32.625V35.25H16.625V32.1875H17.5C17.616 32.1875 17.7273 32.1414 17.8094 32.0594C17.8914 31.9773 17.9375 31.866 17.9375 31.75V30.4375C17.9375 30.3215 17.8914 30.2102 17.8094 30.1281C17.7273 30.0461 17.616 30 17.5 30H14.875C14.759 30 14.6477 30.0461 14.5656 30.1281C14.4836 30.2102 14.4375 30.3215 14.4375 30.4375V31.75C14.4375 31.866 14.4836 31.9773 14.5656 32.0594C14.6477 32.1414 14.759 32.1875 14.875 32.1875H15.75V35.25H14V32.625C14 32.5675 13.9887 32.5106 13.9667 32.4576C13.9447 32.4045 13.9125 32.3562 13.8719 32.3156C13.8313 32.275 13.783 32.2428 13.7299 32.2208C13.6769 32.1988 13.62 32.1875 13.5625 32.1875H12.6875V30.875C12.6875 30.8175 12.6762 30.7606 12.6542 30.7076C12.6322 30.6545 12.6 30.6062 12.5594 30.5656C12.5188 30.525 12.4705 30.4928 12.4174 30.4708C12.3644 30.4488 12.3075 30.4375 12.25 30.4375H11.375V23.3976C11.7991 23.3098 12.1805 23.0798 12.4562 22.7457C12.483 22.7791 12.5114 22.8113 12.5415 22.843C12.7186 23.0317 12.9326 23.1818 13.1703 23.2841C13.408 23.3863 13.6642 23.4386 13.9229 23.4375H14.0771C14.3358 23.4386 14.592 23.3863 14.8297 23.2841C15.0674 23.1818 15.2814 23.0317 15.4585 22.843C15.4886 22.8113 15.517 22.7791 15.5438 22.7457C15.607 22.8218 15.6759 22.893 15.75 22.9586V24.3125C15.17 24.3131 14.614 24.5437 14.2038 24.9538C13.7937 25.364 13.5631 25.92 13.5625 26.5C13.5625 26.5575 13.5738 26.6144 13.5958 26.6674C13.6178 26.7205 13.65 26.7688 13.6906 26.8094C13.7312 26.85 13.7795 26.8822 13.8326 26.9042C13.8856 26.9262 13.9425 26.9375 14 26.9375H18.375C18.4325 26.9375 18.4894 26.9262 18.5424 26.9042C18.5955 26.8822 18.6438 26.85 18.6844 26.8094C18.725 26.7688 18.7572 26.7205 18.7792 26.6674C18.8012 26.6144 18.8125 26.5575 18.8125 26.5C18.8119 25.92 18.5813 25.364 18.1712 24.9538C17.761 24.5437 17.205 24.3131 16.625 24.3125V23.3976C16.7522 23.4242 16.8817 23.4376 17.0116 23.4375H17.1484C17.4245 23.4377 17.6973 23.3777 17.9479 23.2618C18.1984 23.1458 18.4207 22.9766 18.5992 22.7659C18.6107 22.7528 18.6216 22.7391 18.632 22.7255C18.8102 22.9484 19.0364 23.1282 19.2938 23.2515C19.5512 23.3748 19.8331 23.4384 20.1184 23.4375H20.2032C20.4782 23.438 20.75 23.379 21 23.2647V30.4375H20.125C20.0675 30.4375 20.0106 30.4488 19.9576 30.4708C19.9045 30.4928 19.8562 30.525 19.8156 30.5656C19.775 30.6062 19.7428 30.6545 19.7208 30.7076C19.6988 30.7606 19.6875 30.8175 19.6875 30.875V32.1875H18.8125C18.755 32.1875 18.6981 32.1988 18.6451 32.2208C18.592 32.2428 18.5437 32.275 18.5031 32.3156C18.4625 32.3562 18.4303 32.4045 18.4083 32.4576C18.3863 32.5106 18.375 32.5675 18.375 32.625ZM15.3125 31.3125V30.875H17.0625V31.3125H15.3125ZM6.80531 21.2648L7.77109 17.75H9.5468L8.89546 21.7023C8.85648 21.9428 8.73296 22.1616 8.54712 22.3193C8.36127 22.477 8.12528 22.5632 7.88156 22.5625H7.7968C7.63883 22.5624 7.48301 22.526 7.34142 22.4559C7.19983 22.3859 7.07629 22.2842 6.98038 22.1586C6.88448 22.0331 6.8188 21.8872 6.78844 21.7321C6.75807 21.5771 6.76385 21.4172 6.80531 21.2648ZM7 23.2647C7.25004 23.379 7.52185 23.438 7.7968 23.4375H7.88156C8.16694 23.4384 8.44883 23.3748 8.70621 23.2515C8.96358 23.1282 9.18979 22.9484 9.36797 22.7255C9.37836 22.7391 9.38929 22.7528 9.40078 22.7659C9.6829 23.0988 10.0711 23.3244 10.5 23.4047V25.625H7V23.2647ZM10.8516 22.5625C10.7025 22.5626 10.5552 22.5302 10.4198 22.4675C10.2845 22.4049 10.1644 22.3136 10.0679 22.1999C9.97144 22.0862 9.90087 21.9528 9.86112 21.8091C9.82137 21.6654 9.81339 21.5147 9.83773 21.3676L10.4338 17.75H12.2254L12.0143 21.5913C11.9999 21.8536 11.8855 22.1005 11.6947 22.2811C11.5039 22.4618 11.2511 22.5625 10.9884 22.5625H10.8516ZM14.823 22.2415C14.7274 22.3433 14.6118 22.4243 14.4834 22.4795C14.3551 22.5348 14.2168 22.563 14.0771 22.5625H13.9229C13.7835 22.5625 13.6455 22.5341 13.5174 22.479C13.3893 22.424 13.2737 22.3434 13.1777 22.2423C13.0817 22.1411 13.0073 22.0215 12.9591 21.8907C12.9108 21.7599 12.8897 21.6206 12.897 21.4813L13.1015 17.75H14.8985L15.103 21.4786V21.4813C15.111 21.6205 15.0903 21.7598 15.0421 21.8905C14.994 22.0213 14.9194 22.1408 14.823 22.2415ZM15.9857 21.5912L15.7746 17.75H17.5662L18.1623 21.3676C18.1866 21.5147 18.1786 21.6654 18.1389 21.8091C18.0991 21.9528 18.0286 22.0862 17.9321 22.1999C17.8356 22.3136 17.7155 22.4049 17.5802 22.4675C17.4448 22.5302 17.2975 22.5626 17.1484 22.5625H17.0116C16.7489 22.5625 16.4961 22.4618 16.3053 22.2811C16.1145 22.1005 16.0001 21.8536 15.9857 21.5913V21.5912ZM16.625 25.1875C16.8964 25.1878 17.161 25.2721 17.3825 25.4288C17.6041 25.5854 17.7718 25.8068 17.8626 26.0625H14.5124C14.6032 25.8068 14.7709 25.5854 14.9925 25.4288C15.214 25.2721 15.4786 25.1878 15.75 25.1875H16.625ZM21.0202 22.1578C20.9248 22.284 20.8013 22.3863 20.6595 22.4566C20.5177 22.5268 20.3614 22.5631 20.2032 22.5625H20.1184C19.8747 22.5632 19.6387 22.477 19.4529 22.3193C19.267 22.1616 19.1435 21.9428 19.1045 21.7023L18.4532 17.75H20.2289L21.1941 21.2626C21.1941 21.2631 21.1947 21.2642 21.1947 21.2648C21.2366 21.417 21.2427 21.5768 21.2125 21.7318C21.1822 21.8868 21.1164 22.0326 21.0202 22.1578ZM20.5625 31.3125H21V32.1875H20.5625V31.3125ZM24.2009 21.1658C24.2608 21.3215 24.2819 21.4894 24.2624 21.655C24.2428 21.8207 24.1833 21.9791 24.0889 22.1166C23.9944 22.2541 23.868 22.3666 23.7204 22.4442C23.5727 22.5219 23.4084 22.5625 23.2416 22.5625C23.0167 22.562 22.7981 22.4879 22.6191 22.3515C22.4402 22.2152 22.3108 22.024 22.2507 21.8073L21.1362 17.75H22.8873L24.2009 21.1658ZM5.25 10.75H22.75V16.875H5.25V10.75ZM3.91125 22.1168C3.81565 21.9798 3.75539 21.8213 3.73583 21.6554C3.71627 21.4894 3.73802 21.3213 3.79914 21.1658L5.11273 17.75H6.86383L5.7493 21.8073C5.68917 22.024 5.55977 22.2152 5.38085 22.3515C5.20193 22.4879 4.98332 22.562 4.75836 22.5625C4.59138 22.5637 4.42668 22.5237 4.27889 22.4459C4.13111 22.3682 4.00482 22.2551 3.91125 22.1168ZM5.25 23.3719C5.58308 23.2826 5.88558 23.1043 6.125 22.8562V32.1875H5.25V23.3719ZM8.75 35.25H1.75V33.0625H8.75V35.25ZM9.1875 32.1875H7V26.5H10.5V35.25H9.625V32.625C9.62502 32.5675 9.61371 32.5106 9.59173 32.4576C9.56975 32.4045 9.53752 32.3562 9.49689 32.3156C9.45626 32.275 9.40803 32.2428 9.35494 32.2208C9.30186 32.1988 9.24496 32.1875 9.1875 32.1875ZM11.375 31.3125H11.8125V32.625C11.8125 32.6825 11.8238 32.7394 11.8458 32.7924C11.8678 32.8455 11.9 32.8938 11.9406 32.9344C11.9812 32.975 12.0295 33.0072 12.0826 33.0292C12.1356 33.0512 12.1925 33.0625 12.25 33.0625H13.125V35.25H11.375V31.3125ZM26.25 35.25H19.25V33.0625H26.25V35.25Z" fill="url(#paint0_linear_0_410)"/>
<path d="M17.0625 14.25H16.5878C16.4961 13.7131 16.24 13.2178 15.8548 12.8327C15.4697 12.4475 14.9744 12.1914 14.4375 12.0997V11.625C14.4375 11.509 14.3914 11.3977 14.3094 11.3156C14.2273 11.2336 14.116 11.1875 14 11.1875C13.884 11.1875 13.7727 11.2336 13.6906 11.3156C13.6086 11.3977 13.5625 11.509 13.5625 11.625V12.0997C13.0256 12.1914 12.5303 12.4475 12.1452 12.8327C11.76 13.2178 11.5039 13.7131 11.4122 14.25H10.9375C10.8215 14.25 10.7102 14.2961 10.6281 14.3781C10.5461 14.4602 10.5 14.5715 10.5 14.6875C10.5005 15.1515 10.6851 15.5963 11.0131 15.9244C11.3412 16.2524 11.786 16.437 12.25 16.4375H15.75C16.214 16.437 16.6588 16.2524 16.9869 15.9244C17.3149 15.5963 17.4995 15.1515 17.5 14.6875C17.5 14.5715 17.4539 14.4602 17.3719 14.3781C17.2898 14.2961 17.1785 14.25 17.0625 14.25ZM14 12.9375C14.3879 12.938 14.7646 13.0671 15.0713 13.3046C15.3779 13.5421 15.5971 13.8746 15.6946 14.25H12.3054C12.4029 13.8746 12.6221 13.5421 12.9287 13.3046C13.2354 13.0671 13.6121 12.938 14 12.9375ZM15.75 15.5625H12.25C12.0965 15.5624 11.9456 15.522 11.8127 15.4452C11.6797 15.3684 11.5693 15.258 11.4924 15.125H16.5076C16.4307 15.258 16.3203 15.3684 16.1873 15.4452C16.0544 15.522 15.9035 15.5624 15.75 15.5625Z" fill="url(#paint1_linear_0_410)"/>
<path d="M10.7427 13.3015C10.8026 13.2616 10.8517 13.2074 10.8857 13.1439C10.9197 13.0804 10.9375 13.0095 10.9375 12.9375V11.625H10.0625V12.6877C9.92368 12.7585 9.77677 12.8122 9.625 12.8477V11.625H8.75V12.8477C8.59823 12.8122 8.45132 12.7585 8.3125 12.6877V11.625H7.4375V12.9375C7.4375 13.0095 7.45528 13.0804 7.48927 13.1439C7.52325 13.2074 7.57239 13.2616 7.63232 13.3015C7.96895 13.5263 8.35024 13.6755 8.75 13.739V16.4375H9.625V13.739C10.0248 13.6755 10.4061 13.5263 10.7427 13.3015Z" fill="url(#paint2_linear_0_410)"/>
<path d="M18.8124 11.1875C18.3864 11.1875 17.9751 11.3429 17.6555 11.6245C17.3359 11.9061 17.13 12.2945 17.0763 12.7171C17.0227 13.1397 17.1249 13.5673 17.364 13.9198C17.603 14.2724 17.9625 14.5256 18.3749 14.6321V16.4375H19.2499V14.6321C19.6623 14.5256 20.0217 14.2724 20.2608 13.9198C20.4998 13.5673 20.6021 13.1397 20.5484 12.7171C20.4948 12.2945 20.2888 11.9061 19.9692 11.6245C19.6497 11.3429 19.2383 11.1875 18.8124 11.1875ZM18.8124 13.8125C18.6393 13.8125 18.4702 13.7612 18.3263 13.665C18.1824 13.5689 18.0702 13.4322 18.004 13.2723C17.9378 13.1125 17.9204 12.9365 17.9542 12.7668C17.988 12.5971 18.0713 12.4412 18.1937 12.3188C18.316 12.1964 18.4719 12.1131 18.6417 12.0793C18.8114 12.0456 18.9873 12.0629 19.1472 12.1291C19.3071 12.1953 19.4438 12.3075 19.5399 12.4514C19.6361 12.5953 19.6874 12.7644 19.6874 12.9375C19.6871 13.1695 19.5948 13.3919 19.4308 13.5559C19.2668 13.72 19.0444 13.8122 18.8124 13.8125Z" fill="url(#paint3_linear_0_410)"/>
<ellipse opacity="0.15" cx="22.0968" cy="12.5" rx="12.0968" ry="12.5" fill="url(#paint4_linear_0_410)"/>
<defs>
<linearGradient id="paint0_linear_0_410" x1="0.875" y1="22.125" x2="26.4959" y2="22.2393" gradientUnits="userSpaceOnUse">
<stop stop-color="#FF5050"/>
<stop offset="1" stop-color="#FF7070" stop-opacity="0.84"/>
</linearGradient>
<linearGradient id="paint1_linear_0_410" x1="10.5" y1="13.6375" x2="17.3321" y2="13.6781" gradientUnits="userSpaceOnUse">
<stop stop-color="#FF5050"/>
<stop offset="1" stop-color="#FF7070" stop-opacity="0.84"/>
</linearGradient>
<linearGradient id="paint2_linear_0_410" x1="7.4375" y1="13.8708" x2="10.8536" y2="13.8819" gradientUnits="userSpaceOnUse">
<stop stop-color="#FF5050"/>
<stop offset="1" stop-color="#FF7070" stop-opacity="0.84"/>
</linearGradient>
<linearGradient id="paint3_linear_0_410" x1="17.0624" y1="13.6375" x2="20.4785" y2="13.6477" gradientUnits="userSpaceOnUse">
<stop stop-color="#FF5050"/>
<stop offset="1" stop-color="#FF7070" stop-opacity="0.84"/>
</linearGradient>
<linearGradient id="paint4_linear_0_410" x1="10" y1="11.6667" x2="33.6137" y2="11.7686" gradientUnits="userSpaceOnUse">
<stop stop-color="#FF7070"/>
<stop offset="1" stop-color="#FF7070" stop-opacity="0.65"/>
</linearGradient>
</defs>
</svg>
